<?xml version="1.0" standalone="no"?>
<!DOCTYPE svg PUBLIC "-//W3C//DTD SVG 20010904//EN"
 "http://www.w3.org/TR/2001/REC-SVG-20010904/DTD/svg10.dtd">
<svg version="1.0" xmlns="http://www.w3.org/2000/svg"
 width="400.000000pt" height="353.000000pt" viewBox="0 0 400.000000 353.000000"
 preserveAspectRatio="xMidYMid meet">

<g transform="translate(0.000000,353.000000) scale(0.100000,-0.100000)"
fill="#000000" stroke="none">
<path d="M657 3433 c-4 -4 23 -38 60 -75 l67 -68 -67 -68 c-37 -37 -64 -71
-60 -75 4 -4 38 23 75 60 l68 67 68 -67 c37 -37 71 -64 75 -60 4 4 -23 38 -60
75 l-67 68 67 68 c37 37 64 71 60 75 -4 4 -38 -23 -75 -60 l-68 -67 -68 67
c-37 37 -71 64 -75 60z"/>
<path d="M2162 3420 c-130 -79 -74 -280 78 -280 152 0 208 201 78 280 -20 12
-51 20 -78 20 -27 0 -58 -8 -78 -20z m169 -39 c35 -35 39 -44 39 -91 0 -47 -4
-56 -39 -91 -35 -35 -44 -39 -91 -39 -47 0 -56 4 -91 39 -35 35 -39 44 -39 91
0 47 4 56 39 91 35 35 44 39 91 39 47 0 56 -4 91 -39z"/>
<path d="M3057 3433 c-4 -4 23 -38 60 -75 l67 -68 -67 -68 c-37 -37 -64 -71
-60 -75 4 -4 38 23 75 60 l68 67 68 -67 c37 -37 71 -64 75 -60 4 4 -23 38 -60
75 l-67 68 67 68 c37 37 64 71 60 75 -4 4 -38 -23 -75 -60 l-68 -67 -68 67
c-37 37 -71 64 -75 60z"/>
<path d="M790 1555 l0 -1495 1210 0 1210 0 0 1495 0 1495 -1210 0 -1210 0 0
-1495z m480 1040 l0 -355 -230 0 -230 0 0 355 0 355 230 0 230 0 0 -355z m480
0 l0 -355 -230 0 -230 0 0 355 0 355 230 0 230 0 0 -355z m480 0 l0 -355 -230
0 -230 0 0 355 0 355 230 0 230 0 0 -355z m480 255 c0 -87 -2 -101 -17 -106
-94 -28 -130 -83 -125 -186 3 -40 65 -106 108 -114 l34 -6 0 -99 0 -99 -230 0
-230 0 0 355 0 355 230 0 230 0 0 -100z m480 -255 l0 -355 -230 0 -230 0 0 99
0 99 33 6 c43 8 96 63 107 110 4 20 4 53 -1 74 -10 46 -77 112 -114 112 l-25
0 0 105 0 105 230 0 230 0 0 -355z m-450 0 c0 -50 -4 -85 -10 -85 -6 0 -10 29
-10 66 0 58 -2 65 -15 54 -9 -7 -18 -10 -22 -6 -7 7 35 56 49 56 4 0 8 -38 8
-85z m-1470 -725 l0 -350 -230 0 -230 0 0 350 0 350 230 0 230 0 0 -350z m480
0 l0 -350 -230 0 -230 0 0 350 0 350 230 0 230 0 0 -350z m480 0 l0 -350 -230
0 -230 0 0 350 0 350 230 0 230 0 0 -350z m480 0 l0 -350 -230 0 -230 0 0 350
0 350 230 0 230 0 0 -350z m480 0 l0 -350 -230 0 -230 0 0 350 0 350 230 0
230 0 0 -350z m-1922 -467 l-3 -97 -30 -8 c-17 -4 -46 -23 -65 -43 -29 -30
-34 -43 -37 -92 -3 -46 0 -65 16 -91 22 -35 75 -72 104 -72 15 0 17 -11 17
-100 l0 -100 -230 0 -230 0 0 350 0 350 230 0 231 0 -3 -97z m482 2 c0 -82 -2
-96 -17 -101 -46 -14 -85 -40 -103 -69 -27 -43 -27 -119 0 -163 21 -35 74 -72
103 -72 15 0 17 -11 17 -100 l0 -100 -230 0 -230 0 0 99 0 99 32 6 c43 9 96
61 109 108 20 76 -31 167 -104 186 l-32 8 -3 97 -3 97 231 0 230 0 0 -95z
m480 -255 l0 -350 -230 0 -230 0 0 99 0 99 31 6 c43 8 109 76 111 112 5 106
-30 159 -124 188 -16 5 -18 19 -18 101 l0 95 230 0 230 0 0 -350z m480 0 l0
-350 -230 0 -230 0 0 350 0 350 230 0 230 0 0 -350z m480 0 l0 -350 -230 0
-230 0 0 350 0 350 230 0 230 0 0 -350z m-1876 74 c18 -18 21 -40 5 -49 -7 -5
-4 -14 8 -27 16 -18 16 -22 2 -46 -18 -33 -62 -41 -90 -16 -10 9 -19 21 -19
26 0 14 28 9 34 -8 3 -9 15 -14 28 -12 32 4 33 52 1 56 -28 4 -30 19 -3 27 24
8 26 33 4 42 -10 4 -22 -1 -30 -11 -19 -27 -38 -16 -19 12 19 26 57 29 79 6z
m476 -39 c0 -42 3 -55 15 -55 8 0 15 -4 15 -10 0 -5 -7 -10 -15 -10 -8 0 -15
-9 -15 -20 0 -11 -4 -20 -10 -20 -5 0 -10 9 -10 20 0 17 -7 20 -41 20 -31 0
-40 3 -36 14 10 25 79 116 88 116 5 0 9 -25 9 -55z m-520 -755 l0 -350 -230 0
-230 0 0 350 0 350 230 0 230 0 0 -350z m480 0 l0 -350 -230 0 -230 0 0 350 0
350 230 0 230 0 0 -350z m480 0 l0 -350 -230 0 -230 0 0 350 0 350 230 0 230
0 0 -350z m480 0 l0 -350 -230 0 -230 0 0 350 0 350 230 0 230 0 0 -350z m480
0 l0 -350 -230 0 -230 0 0 350 0 350 230 0 230 0 0 -350z"/>
<path d="M1742 1165 l-22 -35 25 0 c22 0 25 4 25 35 0 19 -1 35 -2 35 -2 0
-13 -16 -26 -35z"/>
</g>
</svg>
